<svg xmlns="http://www.w3.org/2000/svg" viewBox="0 0 256 256" role="img" aria-label="Lighthouse">
  <defs>
    <linearGradient id="tower" x1="0" x2="0" y1="0" y2="1">
      <stop offset="0" stop-color="#ffffff"/>
      <stop offset="1" stop-color="#f5f5f5"/>
    </linearGradient>
    <linearGradient id="sky" x1="0" x2="0" y1="0" y2="1">
      <stop offset="0" stop-color="#0b1b3a"/>
      <stop offset="1" stop-color="#132b5a"/>
    </linearGradient>
  </defs>

  <rect width="256" height="256" rx="24" fill="url(#sky)"/>

  <g opacity="0.85">
    <path d="M128 36 208 78 128 120 48 78Z" fill="#ffe27a"/>
    <path d="M128 42 196 78 128 114 60 78Z" fill="#fff2a6"/>
  </g>

  <rect x="88" y="60" width="80" height="34" rx="8" fill="#e53935"/>
  <rect x="96" y="64" width="64" height="26" rx="6" fill="#ffcdd2"/>

  <path d="M92 200 108 92h40l16 108Z" fill="url(#tower)" stroke="#cfcfcf" stroke-width="2"/>

  <rect x="102" y="112" width="52" height="18" rx="6" fill="#e53935"/>
  <rect x="100" y="144" width="56" height="18" rx="6" fill="#e53935"/>
  <rect x="98" y="176" width="60" height="18" rx="6" fill="#e53935"/>

  <rect x="108" y="94" width="40" height="22" rx="6" fill="#263238"/>
  <circle cx="128" cy="105" r="6" fill="#90caf9"/>

  <rect x="80" y="200" width="96" height="18" rx="6" fill="#6d4c41"/>
  <rect x="70" y="216" width="116" height="16" rx="6" fill="#5d4037"/>
</svg>
