<svg xmlns="http://www.w3.org/2000/svg" viewBox="0 0 320 320" role="img" aria-label="Lighthouse">
  <defs>
    <linearGradient id="sky" x1="0" x2="0" y1="0" y2="1">
      <stop offset="0" stop-color="#0b1b3a"/>
      <stop offset="1" stop-color="#102a57"/>
    </linearGradient>
    <linearGradient id="tower" x1="0" x2="0" y1="0" y2="1">
      <stop offset="0" stop-color="#ffffff"/>
      <stop offset="1" stop-color="#e8e8e8"/>
    </linearGradient>
    <linearGradient id="light" x1="0" x2="1" y1="0" y2="0">
      <stop offset="0" stop-color="#fff8b0" stop-opacity="0"/>
      <stop offset="0.5" stop-color="#fff8b0" stop-opacity="0.6"/>
      <stop offset="1" stop-color="#fff8b0" stop-opacity="0"/>
    </linearGradient>
  </defs>

  <rect width="320" height="320" rx="26" fill="url(#sky)"/>

  <rect x="90" y="250" width="140" height="18" rx="6" fill="#5d4037"/>
  <rect x="80" y="265" width="160" height="16" rx="6" fill="#4e342e"/>

  <rect x="130" y="70" width="60" height="28" rx="8" fill="#37474f"/>
  <rect x="138" y="76" width="44" height="16" rx="6" fill="#90caf9"/>

  <rect x="118" y="98" width="84" height="18" rx="6" fill="#e53935"/>

  <path d="M120 250 138 116h44l18 134Z" fill="url(#tower)" stroke="#cfcfcf" stroke-width="2"/>

  <rect x="124" y="138" width="72" height="20" rx="6" fill="#e53935"/>
  <rect x="122" y="174" width="76" height="20" rx="6" fill="#e53935"/>
  <rect x="120" y="210" width="80" height="20" rx="6" fill="#e53935"/>

  <rect x="144" y="124" width="32" height="22" rx="6" fill="#263238"/>
  <circle cx="160" cy="135" r="6" fill="#90caf9"/>

  <path d="M210 88 300 128 210 168" fill="url(#light)"/>
  <path d="M110 88 20 128 110 168" fill="url(#light)"/>

  <rect x="150" y="58" width="20" height="12" rx="4" fill="#263238"/>
</svg>
